name Walk9.mot
datacolumns 19
datarows 10
range 1.33500000 1.34400000
endheader

                time	   L_ground_force_vx	   L_ground_force_vy	   L_ground_force_vz	   L_ground_force_px	   L_ground_force_py	   L_ground_force_pz	   R_ground_force_vx	   R_ground_force_vy	   R_ground_force_vz	   R_ground_force_px	   R_ground_force_py	   R_ground_force_pz	   L_ground_torque_x	   L_ground_torque_y	   L_ground_torque_z	   R_ground_torque_x	   R_ground_torque_y	   R_ground_torque_z	
          1.33500000	         -3.03682942	         74.62094573	         -3.26132863	          0.00153812	          0.00000000	         -0.00014831	         -0.00000000	          0.00000000	          0.00000000	          0.00000000	          0.00000000	          0.00000000	          0.00000000	          0.21659339	          0.00000000	          0.00000000	          0.00000000	          0.00000000	
          1.33600000	         -3.68988706	         82.61873165	         -3.71892554	         -0.01271000	          0.00000000	         -0.00260040	         -0.00000000	          0.00000000	          0.00000000	          0.00000000	          0.00000000	          0.00000000	          0.00000000	          0.23953891	          0.00000000	          0.00000000	          0.00000000	          0.00000000	
          1.33700000	         -4.39386444	         90.90455546	         -4.17027032	         -0.02690463	          0.00000000	         -0.00504722	         -0.00000000	          0.00000000	          0.00000000	          0.00000000	          0.00000000	          0.00000000	          0.00000000	          0.26330514	          0.00000000	          0.00000000	          0.00000000	          0.00000000	
          1.33800000	         -5.15048378	         99.47304158	         -4.61351189	         -0.04100352	          0.00000000	         -0.00748178	         -0.00000000	          0.00000000	          0.00000000	          0.00000000	          0.00000000	          0.00000000	          0.00000000	          0.28787546	          0.00000000	          0.00000000	          0.00000000	          0.00000000	
          1.33900000	         -5.96139780	        108.31740681	         -5.04673886	         -0.05496432	          0.00000000	         -0.00989706	         -0.00000000	          0.00000000	          0.00000000	          0.00000000	          0.00000000	          0.00000000	          0.00000000	          0.31322922	          0.00000000	          0.00000000	          0.00000000	          0.00000000	
          1.34000000	         -6.82817551	        117.42938628	         -5.46799326	         -0.06874568	          0.00000000	         -0.01228617	         -0.00000000	          0.00000000	          0.00000000	          0.00000000	          0.00000000	          0.00000000	          0.00000000	          0.33934161	          0.00000000	          0.00000000	          0.00000000	          0.00000000	
          1.34100000	         -7.75228452	        126.79921071	         -5.87530112	         -0.08230900	          0.00000000	         -0.01464270	         -0.00000000	          0.00000000	          0.00000000	          0.00000000	          0.00000000	          0.00000000	          0.00000000	          0.36618378	          0.00000000	          0.00000000	          0.00000000	          0.00000000	
          1.34200000	         -8.73507068	        136.41560096	         -6.26670422	         -0.09561945	          0.00000000	         -0.01696083	         -0.00000000	          0.00000000	          0.00000000	          0.00000000	          0.00000000	          0.00000000	          0.00000000	          0.39372269	          0.00000000	          0.00000000	          0.00000000	          0.00000000	
          1.34300000	         -9.77773504	        146.26576196	         -6.64028407	         -0.10864613	          0.00000000	         -0.01923540	         -0.00000000	          0.00000000	          0.00000000	          0.00000000	          0.00000000	          0.00000000	          0.00000000	          0.42192078	          0.00000000	          0.00000000	          0.00000000	          0.00000000	
          1.34400000	        -10.88130722	        156.33539081	         -6.99418144	         -0.12136186	          0.00000000	         -0.02146185	         -0.00000000	          0.00000000	          0.00000000	          0.00000000	          0.00000000	          0.00000000	          0.00000000	          0.45073535	          0.00000000	          0.00000000	          0.00000000	          0.00000000	
